<mxfile host="65bd71144e">
    <diagram id="5QQtCKB2d6snlbl7lQSz" name="ページ1">
        <mxGraphModel dx="968" dy="327" grid="1" gridSize="10" guides="1" tooltips="1" connect="1" arrows="1" fold="1" page="1" pageScale="1" pageWidth="827" pageHeight="1169" math="0" shadow="0">
            <root>
                <mxCell id="0"/>
                <mxCell id="1" parent="0"/>
                <mxCell id="2" value="users" style="shape=table;startSize=30;container=1;collapsible=1;childLayout=tableLayout;fixedRows=1;rowLines=0;fontStyle=1;align=center;resizeLast=1;" vertex="1" parent="1">
                    <mxGeometry x="270" y="200" width="180" height="210" as="geometry"/>
                </mxCell>
                <mxCell id="3" value="" style="shape=partialRectangle;collapsible=0;dropTarget=0;pointerEvents=0;fillColor=none;top=0;left=0;bottom=1;right=0;points=[[0,0.5],[1,0.5]];portConstraint=eastwest;" vertex="1" parent="2">
                    <mxGeometry y="30" width="180" height="30" as="geometry"/>
                </mxCell>
                <mxCell id="4" value="PK" style="shape=partialRectangle;connectable=0;fillColor=none;top=0;left=0;bottom=0;right=0;fontStyle=1;overflow=hidden;" vertex="1" parent="3">
                    <mxGeometry width="30" height="30" as="geometry"/>
                </mxCell>
                <mxCell id="5" value="UniqueID" style="shape=partialRectangle;connectable=0;fillColor=none;top=0;left=0;bottom=0;right=0;align=left;spacingLeft=6;fontStyle=5;overflow=hidden;" vertex="1" parent="3">
                    <mxGeometry x="30" width="150" height="30" as="geometry"/>
                </mxCell>
                <mxCell id="6" value="" style="shape=partialRectangle;collapsible=0;dropTarget=0;pointerEvents=0;fillColor=none;top=0;left=0;bottom=0;right=0;points=[[0,0.5],[1,0.5]];portConstraint=eastwest;" vertex="1" parent="2">
                    <mxGeometry y="60" width="180" height="30" as="geometry"/>
                </mxCell>
                <mxCell id="7" value="" style="shape=partialRectangle;connectable=0;fillColor=none;top=0;left=0;bottom=0;right=0;editable=1;overflow=hidden;" vertex="1" parent="6">
                    <mxGeometry width="30" height="30" as="geometry"/>
                </mxCell>
                <mxCell id="8" value="name  string" style="shape=partialRectangle;connectable=0;fillColor=none;top=0;left=0;bottom=0;right=0;align=left;spacingLeft=6;overflow=hidden;" vertex="1" parent="6">
                    <mxGeometry x="30" width="150" height="30" as="geometry"/>
                </mxCell>
                <mxCell id="9" value="" style="shape=partialRectangle;collapsible=0;dropTarget=0;pointerEvents=0;fillColor=none;top=0;left=0;bottom=0;right=0;points=[[0,0.5],[1,0.5]];portConstraint=eastwest;" vertex="1" parent="2">
                    <mxGeometry y="90" width="180" height="30" as="geometry"/>
                </mxCell>
                <mxCell id="10" value="" style="shape=partialRectangle;connectable=0;fillColor=none;top=0;left=0;bottom=0;right=0;editable=1;overflow=hidden;" vertex="1" parent="9">
                    <mxGeometry width="30" height="30" as="geometry"/>
                </mxCell>
                <mxCell id="11" value="email  string" style="shape=partialRectangle;connectable=0;fillColor=none;top=0;left=0;bottom=0;right=0;align=left;spacingLeft=6;overflow=hidden;" vertex="1" parent="9">
                    <mxGeometry x="30" width="150" height="30" as="geometry"/>
                </mxCell>
                <mxCell id="12" value="" style="shape=partialRectangle;collapsible=0;dropTarget=0;pointerEvents=0;fillColor=none;top=0;left=0;bottom=0;right=0;points=[[0,0.5],[1,0.5]];portConstraint=eastwest;" vertex="1" parent="2">
                    <mxGeometry y="120" width="180" height="30" as="geometry"/>
                </mxCell>
                <mxCell id="13" value="" style="shape=partialRectangle;connectable=0;fillColor=none;top=0;left=0;bottom=0;right=0;editable=1;overflow=hidden;" vertex="1" parent="12">
                    <mxGeometry width="30" height="30" as="geometry"/>
                </mxCell>
                <mxCell id="14" value="password  string" style="shape=partialRectangle;connectable=0;fillColor=none;top=0;left=0;bottom=0;right=0;align=left;spacingLeft=6;overflow=hidden;" vertex="1" parent="12">
                    <mxGeometry x="30" width="150" height="30" as="geometry"/>
                </mxCell>
                <mxCell id="16" value="" style="shape=partialRectangle;collapsible=0;dropTarget=0;pointerEvents=0;fillColor=none;top=0;left=0;bottom=0;right=0;points=[[0,0.5],[1,0.5]];portConstraint=eastwest;" vertex="1" parent="2">
                    <mxGeometry y="150" width="180" height="30" as="geometry"/>
                </mxCell>
                <mxCell id="17" value="" style="shape=partialRectangle;connectable=0;fillColor=none;top=0;left=0;bottom=0;right=0;editable=1;overflow=hidden;" vertex="1" parent="16">
                    <mxGeometry width="30" height="30" as="geometry"/>
                </mxCell>
                <mxCell id="18" value=" crypted_password string" style="shape=partialRectangle;connectable=0;fillColor=none;top=0;left=0;bottom=0;right=0;align=left;spacingLeft=6;overflow=hidden;" vertex="1" parent="16">
                    <mxGeometry x="30" width="150" height="30" as="geometry"/>
                </mxCell>
                <mxCell id="58" value="" style="shape=partialRectangle;collapsible=0;dropTarget=0;pointerEvents=0;fillColor=none;top=0;left=0;bottom=0;right=0;points=[[0,0.5],[1,0.5]];portConstraint=eastwest;" vertex="1" parent="2">
                    <mxGeometry y="180" width="180" height="30" as="geometry"/>
                </mxCell>
                <mxCell id="59" value="" style="shape=partialRectangle;connectable=0;fillColor=none;top=0;left=0;bottom=0;right=0;editable=1;overflow=hidden;" vertex="1" parent="58">
                    <mxGeometry width="30" height="30" as="geometry"/>
                </mxCell>
                <mxCell id="60" value="avatar string" style="shape=partialRectangle;connectable=0;fillColor=none;top=0;left=0;bottom=0;right=0;align=left;spacingLeft=6;overflow=hidden;" vertex="1" parent="58">
                    <mxGeometry x="30" width="150" height="30" as="geometry"/>
                </mxCell>
                <mxCell id="32" value="Messages" style="shape=table;startSize=30;container=1;collapsible=1;childLayout=tableLayout;fixedRows=1;rowLines=0;fontStyle=1;align=center;resizeLast=1;" vertex="1" parent="1">
                    <mxGeometry y="350" width="180" height="160" as="geometry"/>
                </mxCell>
                <mxCell id="33" value="" style="shape=partialRectangle;collapsible=0;dropTarget=0;pointerEvents=0;fillColor=none;top=0;left=0;bottom=1;right=0;points=[[0,0.5],[1,0.5]];portConstraint=eastwest;" vertex="1" parent="32">
                    <mxGeometry y="30" width="180" height="30" as="geometry"/>
                </mxCell>
                <mxCell id="34" value="PK" style="shape=partialRectangle;connectable=0;fillColor=none;top=0;left=0;bottom=0;right=0;fontStyle=1;overflow=hidden;" vertex="1" parent="33">
                    <mxGeometry width="30" height="30" as="geometry"/>
                </mxCell>
                <mxCell id="35" value="UniqueID" style="shape=partialRectangle;connectable=0;fillColor=none;top=0;left=0;bottom=0;right=0;align=left;spacingLeft=6;fontStyle=5;overflow=hidden;" vertex="1" parent="33">
                    <mxGeometry x="30" width="150" height="30" as="geometry"/>
                </mxCell>
                <mxCell id="36" value="" style="shape=partialRectangle;collapsible=0;dropTarget=0;pointerEvents=0;fillColor=none;top=0;left=0;bottom=0;right=0;points=[[0,0.5],[1,0.5]];portConstraint=eastwest;" vertex="1" parent="32">
                    <mxGeometry y="60" width="180" height="30" as="geometry"/>
                </mxCell>
                <mxCell id="37" value="" style="shape=partialRectangle;connectable=0;fillColor=none;top=0;left=0;bottom=0;right=0;editable=1;overflow=hidden;" vertex="1" parent="36">
                    <mxGeometry width="30" height="30" as="geometry"/>
                </mxCell>
                <mxCell id="38" value="user_id refarence" style="shape=partialRectangle;connectable=0;fillColor=none;top=0;left=0;bottom=0;right=0;align=left;spacingLeft=6;overflow=hidden;" vertex="1" parent="36">
                    <mxGeometry x="30" width="150" height="30" as="geometry"/>
                </mxCell>
                <mxCell id="39" value="" style="shape=partialRectangle;collapsible=0;dropTarget=0;pointerEvents=0;fillColor=none;top=0;left=0;bottom=0;right=0;points=[[0,0.5],[1,0.5]];portConstraint=eastwest;" vertex="1" parent="32">
                    <mxGeometry y="90" width="180" height="30" as="geometry"/>
                </mxCell>
                <mxCell id="40" value="" style="shape=partialRectangle;connectable=0;fillColor=none;top=0;left=0;bottom=0;right=0;editable=1;overflow=hidden;" vertex="1" parent="39">
                    <mxGeometry width="30" height="30" as="geometry"/>
                </mxCell>
                <mxCell id="41" value="room_id refarence" style="shape=partialRectangle;connectable=0;fillColor=none;top=0;left=0;bottom=0;right=0;align=left;spacingLeft=6;overflow=hidden;" vertex="1" parent="39">
                    <mxGeometry x="30" width="150" height="30" as="geometry"/>
                </mxCell>
                <mxCell id="42" value="" style="shape=partialRectangle;collapsible=0;dropTarget=0;pointerEvents=0;fillColor=none;top=0;left=0;bottom=0;right=0;points=[[0,0.5],[1,0.5]];portConstraint=eastwest;" vertex="1" parent="32">
                    <mxGeometry y="120" width="180" height="30" as="geometry"/>
                </mxCell>
                <mxCell id="43" value="" style="shape=partialRectangle;connectable=0;fillColor=none;top=0;left=0;bottom=0;right=0;editable=1;overflow=hidden;" vertex="1" parent="42">
                    <mxGeometry width="30" height="30" as="geometry"/>
                </mxCell>
                <mxCell id="44" value="message text" style="shape=partialRectangle;connectable=0;fillColor=none;top=0;left=0;bottom=0;right=0;align=left;spacingLeft=6;overflow=hidden;" vertex="1" parent="42">
                    <mxGeometry x="30" width="150" height="30" as="geometry"/>
                </mxCell>
                <mxCell id="186" value="" style="edgeStyle=none;html=1;" edge="1" parent="1" source="45">
                    <mxGeometry relative="1" as="geometry">
                        <mxPoint x="90" y="140" as="targetPoint"/>
                    </mxGeometry>
                </mxCell>
                <mxCell id="45" value="Entries" style="shape=table;startSize=30;container=1;collapsible=1;childLayout=tableLayout;fixedRows=1;rowLines=0;fontStyle=1;align=center;resizeLast=1;" vertex="1" parent="1">
                    <mxGeometry y="10" width="180" height="130" as="geometry"/>
                </mxCell>
                <mxCell id="46" value="" style="shape=partialRectangle;collapsible=0;dropTarget=0;pointerEvents=0;fillColor=none;top=0;left=0;bottom=1;right=0;points=[[0,0.5],[1,0.5]];portConstraint=eastwest;" vertex="1" parent="45">
                    <mxGeometry y="30" width="180" height="30" as="geometry"/>
                </mxCell>
                <mxCell id="47" value="PK" style="shape=partialRectangle;connectable=0;fillColor=none;top=0;left=0;bottom=0;right=0;fontStyle=1;overflow=hidden;" vertex="1" parent="46">
                    <mxGeometry width="30" height="30" as="geometry"/>
                </mxCell>
                <mxCell id="48" value="UniqueID" style="shape=partialRectangle;connectable=0;fillColor=none;top=0;left=0;bottom=0;right=0;align=left;spacingLeft=6;fontStyle=5;overflow=hidden;" vertex="1" parent="46">
                    <mxGeometry x="30" width="150" height="30" as="geometry"/>
                </mxCell>
                <mxCell id="49" value="" style="shape=partialRectangle;collapsible=0;dropTarget=0;pointerEvents=0;fillColor=none;top=0;left=0;bottom=0;right=0;points=[[0,0.5],[1,0.5]];portConstraint=eastwest;" vertex="1" parent="45">
                    <mxGeometry y="60" width="180" height="30" as="geometry"/>
                </mxCell>
                <mxCell id="50" value="" style="shape=partialRectangle;connectable=0;fillColor=none;top=0;left=0;bottom=0;right=0;editable=1;overflow=hidden;" vertex="1" parent="49">
                    <mxGeometry width="30" height="30" as="geometry"/>
                </mxCell>
                <mxCell id="51" value=" user_id  refarence" style="shape=partialRectangle;connectable=0;fillColor=none;top=0;left=0;bottom=0;right=0;align=left;spacingLeft=6;overflow=hidden;" vertex="1" parent="49">
                    <mxGeometry x="30" width="150" height="30" as="geometry"/>
                </mxCell>
                <mxCell id="52" value="" style="shape=partialRectangle;collapsible=0;dropTarget=0;pointerEvents=0;fillColor=none;top=0;left=0;bottom=0;right=0;points=[[0,0.5],[1,0.5]];portConstraint=eastwest;" vertex="1" parent="45">
                    <mxGeometry y="90" width="180" height="30" as="geometry"/>
                </mxCell>
                <mxCell id="53" value="" style="shape=partialRectangle;connectable=0;fillColor=none;top=0;left=0;bottom=0;right=0;editable=1;overflow=hidden;" vertex="1" parent="52">
                    <mxGeometry width="30" height="30" as="geometry"/>
                </mxCell>
                <mxCell id="54" value="room_id  refarence" style="shape=partialRectangle;connectable=0;fillColor=none;top=0;left=0;bottom=0;right=0;align=left;spacingLeft=6;overflow=hidden;" vertex="1" parent="52">
                    <mxGeometry x="30" width="150" height="30" as="geometry"/>
                </mxCell>
                <mxCell id="64" value="Chat_group_Users" style="shape=table;startSize=30;container=1;collapsible=1;childLayout=tableLayout;fixedRows=1;rowLines=0;fontStyle=1;align=center;resizeLast=1;" vertex="1" parent="1">
                    <mxGeometry x="300" width="180" height="130" as="geometry"/>
                </mxCell>
                <mxCell id="65" value="" style="shape=partialRectangle;collapsible=0;dropTarget=0;pointerEvents=0;fillColor=none;top=0;left=0;bottom=1;right=0;points=[[0,0.5],[1,0.5]];portConstraint=eastwest;" vertex="1" parent="64">
                    <mxGeometry y="30" width="180" height="30" as="geometry"/>
                </mxCell>
                <mxCell id="66" value="PK" style="shape=partialRectangle;connectable=0;fillColor=none;top=0;left=0;bottom=0;right=0;fontStyle=1;overflow=hidden;" vertex="1" parent="65">
                    <mxGeometry width="30" height="30" as="geometry"/>
                </mxCell>
                <mxCell id="67" value="UniqueID" style="shape=partialRectangle;connectable=0;fillColor=none;top=0;left=0;bottom=0;right=0;align=left;spacingLeft=6;fontStyle=5;overflow=hidden;" vertex="1" parent="65">
                    <mxGeometry x="30" width="150" height="30" as="geometry"/>
                </mxCell>
                <mxCell id="68" value="" style="shape=partialRectangle;collapsible=0;dropTarget=0;pointerEvents=0;fillColor=none;top=0;left=0;bottom=0;right=0;points=[[0,0.5],[1,0.5]];portConstraint=eastwest;" vertex="1" parent="64">
                    <mxGeometry y="60" width="180" height="30" as="geometry"/>
                </mxCell>
                <mxCell id="69" value="" style="shape=partialRectangle;connectable=0;fillColor=none;top=0;left=0;bottom=0;right=0;editable=1;overflow=hidden;" vertex="1" parent="68">
                    <mxGeometry width="30" height="30" as="geometry"/>
                </mxCell>
                <mxCell id="70" value="user_id refarence" style="shape=partialRectangle;connectable=0;fillColor=none;top=0;left=0;bottom=0;right=0;align=left;spacingLeft=6;overflow=hidden;" vertex="1" parent="68">
                    <mxGeometry x="30" width="150" height="30" as="geometry"/>
                </mxCell>
                <mxCell id="71" value="" style="shape=partialRectangle;collapsible=0;dropTarget=0;pointerEvents=0;fillColor=none;top=0;left=0;bottom=0;right=0;points=[[0,0.5],[1,0.5]];portConstraint=eastwest;" vertex="1" parent="64">
                    <mxGeometry y="90" width="180" height="30" as="geometry"/>
                </mxCell>
                <mxCell id="72" value="" style="shape=partialRectangle;connectable=0;fillColor=none;top=0;left=0;bottom=0;right=0;editable=1;overflow=hidden;" vertex="1" parent="71">
                    <mxGeometry width="30" height="30" as="geometry"/>
                </mxCell>
                <mxCell id="73" value="chat_group_id  refarence" style="shape=partialRectangle;connectable=0;fillColor=none;top=0;left=0;bottom=0;right=0;align=left;spacingLeft=6;overflow=hidden;" vertex="1" parent="71">
                    <mxGeometry x="30" width="150" height="30" as="geometry"/>
                </mxCell>
                <mxCell id="77" value="chat_groups" style="shape=table;startSize=30;container=1;collapsible=1;childLayout=tableLayout;fixedRows=1;rowLines=0;fontStyle=1;align=center;resizeLast=1;" vertex="1" parent="1">
                    <mxGeometry x="610" width="180" height="130" as="geometry"/>
                </mxCell>
                <mxCell id="78" value="" style="shape=partialRectangle;collapsible=0;dropTarget=0;pointerEvents=0;fillColor=none;top=0;left=0;bottom=1;right=0;points=[[0,0.5],[1,0.5]];portConstraint=eastwest;" vertex="1" parent="77">
                    <mxGeometry y="30" width="180" height="30" as="geometry"/>
                </mxCell>
                <mxCell id="79" value="PK" style="shape=partialRectangle;connectable=0;fillColor=none;top=0;left=0;bottom=0;right=0;fontStyle=1;overflow=hidden;" vertex="1" parent="78">
                    <mxGeometry width="30" height="30" as="geometry"/>
                </mxCell>
                <mxCell id="80" value="UniqueID" style="shape=partialRectangle;connectable=0;fillColor=none;top=0;left=0;bottom=0;right=0;align=left;spacingLeft=6;fontStyle=5;overflow=hidden;" vertex="1" parent="78">
                    <mxGeometry x="30" width="150" height="30" as="geometry"/>
                </mxCell>
                <mxCell id="81" value="" style="shape=partialRectangle;collapsible=0;dropTarget=0;pointerEvents=0;fillColor=none;top=0;left=0;bottom=0;right=0;points=[[0,0.5],[1,0.5]];portConstraint=eastwest;" vertex="1" parent="77">
                    <mxGeometry y="60" width="180" height="30" as="geometry"/>
                </mxCell>
                <mxCell id="82" value="" style="shape=partialRectangle;connectable=0;fillColor=none;top=0;left=0;bottom=0;right=0;editable=1;overflow=hidden;" vertex="1" parent="81">
                    <mxGeometry width="30" height="30" as="geometry"/>
                </mxCell>
                <mxCell id="83" value="chat_group_name string" style="shape=partialRectangle;connectable=0;fillColor=none;top=0;left=0;bottom=0;right=0;align=left;spacingLeft=6;overflow=hidden;" vertex="1" parent="81">
                    <mxGeometry x="30" width="150" height="30" as="geometry"/>
                </mxCell>
                <mxCell id="84" value="" style="shape=partialRectangle;collapsible=0;dropTarget=0;pointerEvents=0;fillColor=none;top=0;left=0;bottom=0;right=0;points=[[0,0.5],[1,0.5]];portConstraint=eastwest;" vertex="1" parent="77">
                    <mxGeometry y="90" width="180" height="30" as="geometry"/>
                </mxCell>
                <mxCell id="85" value="" style="shape=partialRectangle;connectable=0;fillColor=none;top=0;left=0;bottom=0;right=0;editable=1;overflow=hidden;" vertex="1" parent="84">
                    <mxGeometry width="30" height="30" as="geometry"/>
                </mxCell>
                <mxCell id="86" value="chat_description text" style="shape=partialRectangle;connectable=0;fillColor=none;top=0;left=0;bottom=0;right=0;align=left;spacingLeft=6;overflow=hidden;" vertex="1" parent="84">
                    <mxGeometry x="30" width="150" height="30" as="geometry"/>
                </mxCell>
                <mxCell id="90" value="chat_messages" style="shape=table;startSize=30;container=1;collapsible=1;childLayout=tableLayout;fixedRows=1;rowLines=0;fontStyle=1;align=center;resizeLast=1;" vertex="1" parent="1">
                    <mxGeometry x="580" y="220" width="180" height="160" as="geometry"/>
                </mxCell>
                <mxCell id="91" value="" style="shape=partialRectangle;collapsible=0;dropTarget=0;pointerEvents=0;fillColor=none;top=0;left=0;bottom=1;right=0;points=[[0,0.5],[1,0.5]];portConstraint=eastwest;" vertex="1" parent="90">
                    <mxGeometry y="30" width="180" height="30" as="geometry"/>
                </mxCell>
                <mxCell id="92" value="PK" style="shape=partialRectangle;connectable=0;fillColor=none;top=0;left=0;bottom=0;right=0;fontStyle=1;overflow=hidden;" vertex="1" parent="91">
                    <mxGeometry width="30" height="30" as="geometry"/>
                </mxCell>
                <mxCell id="93" value="UniqueID" style="shape=partialRectangle;connectable=0;fillColor=none;top=0;left=0;bottom=0;right=0;align=left;spacingLeft=6;fontStyle=5;overflow=hidden;" vertex="1" parent="91">
                    <mxGeometry x="30" width="150" height="30" as="geometry"/>
                </mxCell>
                <mxCell id="94" value="" style="shape=partialRectangle;collapsible=0;dropTarget=0;pointerEvents=0;fillColor=none;top=0;left=0;bottom=0;right=0;points=[[0,0.5],[1,0.5]];portConstraint=eastwest;" vertex="1" parent="90">
                    <mxGeometry y="60" width="180" height="30" as="geometry"/>
                </mxCell>
                <mxCell id="95" value="" style="shape=partialRectangle;connectable=0;fillColor=none;top=0;left=0;bottom=0;right=0;editable=1;overflow=hidden;" vertex="1" parent="94">
                    <mxGeometry width="30" height="30" as="geometry"/>
                </mxCell>
                <mxCell id="96" value="user_id refarence" style="shape=partialRectangle;connectable=0;fillColor=none;top=0;left=0;bottom=0;right=0;align=left;spacingLeft=6;overflow=hidden;" vertex="1" parent="94">
                    <mxGeometry x="30" width="150" height="30" as="geometry"/>
                </mxCell>
                <mxCell id="97" value="" style="shape=partialRectangle;collapsible=0;dropTarget=0;pointerEvents=0;fillColor=none;top=0;left=0;bottom=0;right=0;points=[[0,0.5],[1,0.5]];portConstraint=eastwest;" vertex="1" parent="90">
                    <mxGeometry y="90" width="180" height="30" as="geometry"/>
                </mxCell>
                <mxCell id="98" value="" style="shape=partialRectangle;connectable=0;fillColor=none;top=0;left=0;bottom=0;right=0;editable=1;overflow=hidden;" vertex="1" parent="97">
                    <mxGeometry width="30" height="30" as="geometry"/>
                </mxCell>
                <mxCell id="99" value="chat_group_id refarence" style="shape=partialRectangle;connectable=0;fillColor=none;top=0;left=0;bottom=0;right=0;align=left;spacingLeft=6;overflow=hidden;" vertex="1" parent="97">
                    <mxGeometry x="30" width="150" height="30" as="geometry"/>
                </mxCell>
                <mxCell id="100" value="" style="shape=partialRectangle;collapsible=0;dropTarget=0;pointerEvents=0;fillColor=none;top=0;left=0;bottom=0;right=0;points=[[0,0.5],[1,0.5]];portConstraint=eastwest;" vertex="1" parent="90">
                    <mxGeometry y="120" width="180" height="30" as="geometry"/>
                </mxCell>
                <mxCell id="101" value="" style="shape=partialRectangle;connectable=0;fillColor=none;top=0;left=0;bottom=0;right=0;editable=1;overflow=hidden;" vertex="1" parent="100">
                    <mxGeometry width="30" height="30" as="geometry"/>
                </mxCell>
                <mxCell id="102" value="message  text" style="shape=partialRectangle;connectable=0;fillColor=none;top=0;left=0;bottom=0;right=0;align=left;spacingLeft=6;overflow=hidden;" vertex="1" parent="100">
                    <mxGeometry x="30" width="150" height="30" as="geometry"/>
                </mxCell>
                <mxCell id="103" value="friend_request" style="shape=table;startSize=30;container=1;collapsible=1;childLayout=tableLayout;fixedRows=1;rowLines=0;fontStyle=1;align=center;resizeLast=1;" vertex="1" parent="1">
                    <mxGeometry x="560" y="440" width="180" height="130" as="geometry"/>
                </mxCell>
                <mxCell id="104" value="" style="shape=partialRectangle;collapsible=0;dropTarget=0;pointerEvents=0;fillColor=none;top=0;left=0;bottom=1;right=0;points=[[0,0.5],[1,0.5]];portConstraint=eastwest;" vertex="1" parent="103">
                    <mxGeometry y="30" width="180" height="30" as="geometry"/>
                </mxCell>
                <mxCell id="105" value="PK" style="shape=partialRectangle;connectable=0;fillColor=none;top=0;left=0;bottom=0;right=0;fontStyle=1;overflow=hidden;" vertex="1" parent="104">
                    <mxGeometry width="30" height="30" as="geometry"/>
                </mxCell>
                <mxCell id="106" value="UniqueID" style="shape=partialRectangle;connectable=0;fillColor=none;top=0;left=0;bottom=0;right=0;align=left;spacingLeft=6;fontStyle=5;overflow=hidden;" vertex="1" parent="104">
                    <mxGeometry x="30" width="150" height="30" as="geometry"/>
                </mxCell>
                <mxCell id="107" value="" style="shape=partialRectangle;collapsible=0;dropTarget=0;pointerEvents=0;fillColor=none;top=0;left=0;bottom=0;right=0;points=[[0,0.5],[1,0.5]];portConstraint=eastwest;" vertex="1" parent="103">
                    <mxGeometry y="60" width="180" height="30" as="geometry"/>
                </mxCell>
                <mxCell id="108" value="" style="shape=partialRectangle;connectable=0;fillColor=none;top=0;left=0;bottom=0;right=0;editable=1;overflow=hidden;" vertex="1" parent="107">
                    <mxGeometry width="30" height="30" as="geometry"/>
                </mxCell>
                <mxCell id="109" value="from_user_id  refarence" style="shape=partialRectangle;connectable=0;fillColor=none;top=0;left=0;bottom=0;right=0;align=left;spacingLeft=6;overflow=hidden;" vertex="1" parent="107">
                    <mxGeometry x="30" width="150" height="30" as="geometry"/>
                </mxCell>
                <mxCell id="116" value="" style="shape=partialRectangle;collapsible=0;dropTarget=0;pointerEvents=0;fillColor=none;top=0;left=0;bottom=0;right=0;points=[[0,0.5],[1,0.5]];portConstraint=eastwest;" vertex="1" parent="103">
                    <mxGeometry y="90" width="180" height="30" as="geometry"/>
                </mxCell>
                <mxCell id="117" value="" style="shape=partialRectangle;connectable=0;fillColor=none;top=0;left=0;bottom=0;right=0;editable=1;overflow=hidden;" vertex="1" parent="116">
                    <mxGeometry width="30" height="30" as="geometry"/>
                </mxCell>
                <mxCell id="118" value="to_user_id  refarence" style="shape=partialRectangle;connectable=0;fillColor=none;top=0;left=0;bottom=0;right=0;align=left;spacingLeft=6;overflow=hidden;" vertex="1" parent="116">
                    <mxGeometry x="30" width="150" height="30" as="geometry"/>
                </mxCell>
                <mxCell id="119" value="user_friend" style="shape=table;startSize=30;container=1;collapsible=1;childLayout=tableLayout;fixedRows=1;rowLines=0;fontStyle=1;align=center;resizeLast=1;" vertex="1" parent="1">
                    <mxGeometry x="560" y="670" width="180" height="130" as="geometry"/>
                </mxCell>
                <mxCell id="120" value="" style="shape=partialRectangle;collapsible=0;dropTarget=0;pointerEvents=0;fillColor=none;top=0;left=0;bottom=1;right=0;points=[[0,0.5],[1,0.5]];portConstraint=eastwest;" vertex="1" parent="119">
                    <mxGeometry y="30" width="180" height="30" as="geometry"/>
                </mxCell>
                <mxCell id="121" value="PK" style="shape=partialRectangle;connectable=0;fillColor=none;top=0;left=0;bottom=0;right=0;fontStyle=1;overflow=hidden;" vertex="1" parent="120">
                    <mxGeometry width="30" height="30" as="geometry"/>
                </mxCell>
                <mxCell id="122" value="UniqueID" style="shape=partialRectangle;connectable=0;fillColor=none;top=0;left=0;bottom=0;right=0;align=left;spacingLeft=6;fontStyle=5;overflow=hidden;" vertex="1" parent="120">
                    <mxGeometry x="30" width="150" height="30" as="geometry"/>
                </mxCell>
                <mxCell id="123" value="" style="shape=partialRectangle;collapsible=0;dropTarget=0;pointerEvents=0;fillColor=none;top=0;left=0;bottom=0;right=0;points=[[0,0.5],[1,0.5]];portConstraint=eastwest;" vertex="1" parent="119">
                    <mxGeometry y="60" width="180" height="30" as="geometry"/>
                </mxCell>
                <mxCell id="124" value="" style="shape=partialRectangle;connectable=0;fillColor=none;top=0;left=0;bottom=0;right=0;editable=1;overflow=hidden;" vertex="1" parent="123">
                    <mxGeometry width="30" height="30" as="geometry"/>
                </mxCell>
                <mxCell id="125" value="user_id refarence" style="shape=partialRectangle;connectable=0;fillColor=none;top=0;left=0;bottom=0;right=0;align=left;spacingLeft=6;overflow=hidden;" vertex="1" parent="123">
                    <mxGeometry x="30" width="150" height="30" as="geometry"/>
                </mxCell>
                <mxCell id="126" value="" style="shape=partialRectangle;collapsible=0;dropTarget=0;pointerEvents=0;fillColor=none;top=0;left=0;bottom=0;right=0;points=[[0,0.5],[1,0.5]];portConstraint=eastwest;" vertex="1" parent="119">
                    <mxGeometry y="90" width="180" height="30" as="geometry"/>
                </mxCell>
                <mxCell id="127" value="" style="shape=partialRectangle;connectable=0;fillColor=none;top=0;left=0;bottom=0;right=0;editable=1;overflow=hidden;" vertex="1" parent="126">
                    <mxGeometry width="30" height="30" as="geometry"/>
                </mxCell>
                <mxCell id="128" value="friend_user_id refarence" style="shape=partialRectangle;connectable=0;fillColor=none;top=0;left=0;bottom=0;right=0;align=left;spacingLeft=6;overflow=hidden;" vertex="1" parent="126">
                    <mxGeometry x="30" width="150" height="30" as="geometry"/>
                </mxCell>
                <mxCell id="132" value="recruitment" style="shape=table;startSize=30;container=1;collapsible=1;childLayout=tableLayout;fixedRows=1;rowLines=0;fontStyle=1;align=center;resizeLast=1;" vertex="1" parent="1">
                    <mxGeometry x="280" y="460" width="180" height="160" as="geometry"/>
                </mxCell>
                <mxCell id="133" value="" style="shape=partialRectangle;collapsible=0;dropTarget=0;pointerEvents=0;fillColor=none;top=0;left=0;bottom=1;right=0;points=[[0,0.5],[1,0.5]];portConstraint=eastwest;" vertex="1" parent="132">
                    <mxGeometry y="30" width="180" height="30" as="geometry"/>
                </mxCell>
                <mxCell id="134" value="PK" style="shape=partialRectangle;connectable=0;fillColor=none;top=0;left=0;bottom=0;right=0;fontStyle=1;overflow=hidden;" vertex="1" parent="133">
                    <mxGeometry width="30" height="30" as="geometry"/>
                </mxCell>
                <mxCell id="135" value="UniqueID" style="shape=partialRectangle;connectable=0;fillColor=none;top=0;left=0;bottom=0;right=0;align=left;spacingLeft=6;fontStyle=5;overflow=hidden;" vertex="1" parent="133">
                    <mxGeometry x="30" width="150" height="30" as="geometry"/>
                </mxCell>
                <mxCell id="136" value="" style="shape=partialRectangle;collapsible=0;dropTarget=0;pointerEvents=0;fillColor=none;top=0;left=0;bottom=0;right=0;points=[[0,0.5],[1,0.5]];portConstraint=eastwest;" vertex="1" parent="132">
                    <mxGeometry y="60" width="180" height="30" as="geometry"/>
                </mxCell>
                <mxCell id="137" value="" style="shape=partialRectangle;connectable=0;fillColor=none;top=0;left=0;bottom=0;right=0;editable=1;overflow=hidden;" vertex="1" parent="136">
                    <mxGeometry width="30" height="30" as="geometry"/>
                </mxCell>
                <mxCell id="138" value="user_id  refarence" style="shape=partialRectangle;connectable=0;fillColor=none;top=0;left=0;bottom=0;right=0;align=left;spacingLeft=6;overflow=hidden;" vertex="1" parent="136">
                    <mxGeometry x="30" width="150" height="30" as="geometry"/>
                </mxCell>
                <mxCell id="139" value="" style="shape=partialRectangle;collapsible=0;dropTarget=0;pointerEvents=0;fillColor=none;top=0;left=0;bottom=0;right=0;points=[[0,0.5],[1,0.5]];portConstraint=eastwest;" vertex="1" parent="132">
                    <mxGeometry y="90" width="180" height="30" as="geometry"/>
                </mxCell>
                <mxCell id="140" value="" style="shape=partialRectangle;connectable=0;fillColor=none;top=0;left=0;bottom=0;right=0;editable=1;overflow=hidden;" vertex="1" parent="139">
                    <mxGeometry width="30" height="30" as="geometry"/>
                </mxCell>
                <mxCell id="141" value="title  text" style="shape=partialRectangle;connectable=0;fillColor=none;top=0;left=0;bottom=0;right=0;align=left;spacingLeft=6;overflow=hidden;" vertex="1" parent="139">
                    <mxGeometry x="30" width="150" height="30" as="geometry"/>
                </mxCell>
                <mxCell id="142" value="" style="shape=partialRectangle;collapsible=0;dropTarget=0;pointerEvents=0;fillColor=none;top=0;left=0;bottom=0;right=0;points=[[0,0.5],[1,0.5]];portConstraint=eastwest;" vertex="1" parent="132">
                    <mxGeometry y="120" width="180" height="30" as="geometry"/>
                </mxCell>
                <mxCell id="143" value="" style="shape=partialRectangle;connectable=0;fillColor=none;top=0;left=0;bottom=0;right=0;editable=1;overflow=hidden;" vertex="1" parent="142">
                    <mxGeometry width="30" height="30" as="geometry"/>
                </mxCell>
                <mxCell id="144" value="body text" style="shape=partialRectangle;connectable=0;fillColor=none;top=0;left=0;bottom=0;right=0;align=left;spacingLeft=6;overflow=hidden;" vertex="1" parent="142">
                    <mxGeometry x="30" width="150" height="30" as="geometry"/>
                </mxCell>
                <mxCell id="145" value="tags" style="shape=table;startSize=30;container=1;collapsible=1;childLayout=tableLayout;fixedRows=1;rowLines=0;fontStyle=1;align=center;resizeLast=1;" vertex="1" parent="1">
                    <mxGeometry x="30" y="780" width="180" height="100" as="geometry"/>
                </mxCell>
                <mxCell id="146" value="" style="shape=partialRectangle;collapsible=0;dropTarget=0;pointerEvents=0;fillColor=none;top=0;left=0;bottom=1;right=0;points=[[0,0.5],[1,0.5]];portConstraint=eastwest;" vertex="1" parent="145">
                    <mxGeometry y="30" width="180" height="30" as="geometry"/>
                </mxCell>
                <mxCell id="147" value="PK" style="shape=partialRectangle;connectable=0;fillColor=none;top=0;left=0;bottom=0;right=0;fontStyle=1;overflow=hidden;" vertex="1" parent="146">
                    <mxGeometry width="30" height="30" as="geometry"/>
                </mxCell>
                <mxCell id="148" value="UniqueID" style="shape=partialRectangle;connectable=0;fillColor=none;top=0;left=0;bottom=0;right=0;align=left;spacingLeft=6;fontStyle=5;overflow=hidden;" vertex="1" parent="146">
                    <mxGeometry x="30" width="150" height="30" as="geometry"/>
                </mxCell>
                <mxCell id="149" value="" style="shape=partialRectangle;collapsible=0;dropTarget=0;pointerEvents=0;fillColor=none;top=0;left=0;bottom=0;right=0;points=[[0,0.5],[1,0.5]];portConstraint=eastwest;" vertex="1" parent="145">
                    <mxGeometry y="60" width="180" height="30" as="geometry"/>
                </mxCell>
                <mxCell id="150" value="" style="shape=partialRectangle;connectable=0;fillColor=none;top=0;left=0;bottom=0;right=0;editable=1;overflow=hidden;" vertex="1" parent="149">
                    <mxGeometry width="30" height="30" as="geometry"/>
                </mxCell>
                <mxCell id="151" value=" name  string" style="shape=partialRectangle;connectable=0;fillColor=none;top=0;left=0;bottom=0;right=0;align=left;spacingLeft=6;overflow=hidden;" vertex="1" parent="149">
                    <mxGeometry x="30" width="150" height="30" as="geometry"/>
                </mxCell>
                <mxCell id="158" value="comments" style="shape=table;startSize=30;container=1;collapsible=1;childLayout=tableLayout;fixedRows=1;rowLines=0;fontStyle=1;align=center;resizeLast=1;" vertex="1" parent="1">
                    <mxGeometry x="300" y="660" width="180" height="160" as="geometry"/>
                </mxCell>
                <mxCell id="159" value="" style="shape=partialRectangle;collapsible=0;dropTarget=0;pointerEvents=0;fillColor=none;top=0;left=0;bottom=1;right=0;points=[[0,0.5],[1,0.5]];portConstraint=eastwest;" vertex="1" parent="158">
                    <mxGeometry y="30" width="180" height="30" as="geometry"/>
                </mxCell>
                <mxCell id="160" value="PK" style="shape=partialRectangle;connectable=0;fillColor=none;top=0;left=0;bottom=0;right=0;fontStyle=1;overflow=hidden;" vertex="1" parent="159">
                    <mxGeometry width="30" height="30" as="geometry"/>
                </mxCell>
                <mxCell id="161" value="UniqueID" style="shape=partialRectangle;connectable=0;fillColor=none;top=0;left=0;bottom=0;right=0;align=left;spacingLeft=6;fontStyle=5;overflow=hidden;" vertex="1" parent="159">
                    <mxGeometry x="30" width="150" height="30" as="geometry"/>
                </mxCell>
                <mxCell id="162" value="" style="shape=partialRectangle;collapsible=0;dropTarget=0;pointerEvents=0;fillColor=none;top=0;left=0;bottom=0;right=0;points=[[0,0.5],[1,0.5]];portConstraint=eastwest;" vertex="1" parent="158">
                    <mxGeometry y="60" width="180" height="30" as="geometry"/>
                </mxCell>
                <mxCell id="163" value="" style="shape=partialRectangle;connectable=0;fillColor=none;top=0;left=0;bottom=0;right=0;editable=1;overflow=hidden;" vertex="1" parent="162">
                    <mxGeometry width="30" height="30" as="geometry"/>
                </mxCell>
                <mxCell id="164" value="user_id refarence" style="shape=partialRectangle;connectable=0;fillColor=none;top=0;left=0;bottom=0;right=0;align=left;spacingLeft=6;overflow=hidden;" vertex="1" parent="162">
                    <mxGeometry x="30" width="150" height="30" as="geometry"/>
                </mxCell>
                <mxCell id="165" value="" style="shape=partialRectangle;collapsible=0;dropTarget=0;pointerEvents=0;fillColor=none;top=0;left=0;bottom=0;right=0;points=[[0,0.5],[1,0.5]];portConstraint=eastwest;" vertex="1" parent="158">
                    <mxGeometry y="90" width="180" height="30" as="geometry"/>
                </mxCell>
                <mxCell id="166" value="" style="shape=partialRectangle;connectable=0;fillColor=none;top=0;left=0;bottom=0;right=0;editable=1;overflow=hidden;" vertex="1" parent="165">
                    <mxGeometry width="30" height="30" as="geometry"/>
                </mxCell>
                <mxCell id="167" value="recruitment_id refarence" style="shape=partialRectangle;connectable=0;fillColor=none;top=0;left=0;bottom=0;right=0;align=left;spacingLeft=6;overflow=hidden;" vertex="1" parent="165">
                    <mxGeometry x="30" width="150" height="30" as="geometry"/>
                </mxCell>
                <mxCell id="168" value="" style="shape=partialRectangle;collapsible=0;dropTarget=0;pointerEvents=0;fillColor=none;top=0;left=0;bottom=0;right=0;points=[[0,0.5],[1,0.5]];portConstraint=eastwest;" vertex="1" parent="158">
                    <mxGeometry y="120" width="180" height="30" as="geometry"/>
                </mxCell>
                <mxCell id="169" value="" style="shape=partialRectangle;connectable=0;fillColor=none;top=0;left=0;bottom=0;right=0;editable=1;overflow=hidden;" vertex="1" parent="168">
                    <mxGeometry width="30" height="30" as="geometry"/>
                </mxCell>
                <mxCell id="170" value="body  text" style="shape=partialRectangle;connectable=0;fillColor=none;top=0;left=0;bottom=0;right=0;align=left;spacingLeft=6;overflow=hidden;" vertex="1" parent="168">
                    <mxGeometry x="30" width="150" height="30" as="geometry"/>
                </mxCell>
                <mxCell id="171" value="recruitment_tag" style="shape=table;startSize=30;container=1;collapsible=1;childLayout=tableLayout;fixedRows=1;rowLines=0;fontStyle=1;align=center;resizeLast=1;" vertex="1" parent="1">
                    <mxGeometry x="20" y="570" width="180" height="140" as="geometry"/>
                </mxCell>
                <mxCell id="172" value="" style="shape=partialRectangle;collapsible=0;dropTarget=0;pointerEvents=0;fillColor=none;top=0;left=0;bottom=1;right=0;points=[[0,0.5],[1,0.5]];portConstraint=eastwest;" vertex="1" parent="171">
                    <mxGeometry y="30" width="180" height="30" as="geometry"/>
                </mxCell>
                <mxCell id="173" value="PK" style="shape=partialRectangle;connectable=0;fillColor=none;top=0;left=0;bottom=0;right=0;fontStyle=1;overflow=hidden;" vertex="1" parent="172">
                    <mxGeometry width="30" height="30" as="geometry"/>
                </mxCell>
                <mxCell id="174" value="UniqueID" style="shape=partialRectangle;connectable=0;fillColor=none;top=0;left=0;bottom=0;right=0;align=left;spacingLeft=6;fontStyle=5;overflow=hidden;" vertex="1" parent="172">
                    <mxGeometry x="30" width="150" height="30" as="geometry"/>
                </mxCell>
                <mxCell id="175" value="" style="shape=partialRectangle;collapsible=0;dropTarget=0;pointerEvents=0;fillColor=none;top=0;left=0;bottom=0;right=0;points=[[0,0.5],[1,0.5]];portConstraint=eastwest;" vertex="1" parent="171">
                    <mxGeometry y="60" width="180" height="40" as="geometry"/>
                </mxCell>
                <mxCell id="176" value="" style="shape=partialRectangle;connectable=0;fillColor=none;top=0;left=0;bottom=0;right=0;editable=1;overflow=hidden;" vertex="1" parent="175">
                    <mxGeometry width="30" height="40" as="geometry"/>
                </mxCell>
                <mxCell id="177" value="recruitment_id  refarence" style="shape=partialRectangle;connectable=0;fillColor=none;top=0;left=0;bottom=0;right=0;align=left;spacingLeft=6;overflow=hidden;" vertex="1" parent="175">
                    <mxGeometry x="30" width="150" height="40" as="geometry"/>
                </mxCell>
                <mxCell id="178" value="" style="shape=partialRectangle;collapsible=0;dropTarget=0;pointerEvents=0;fillColor=none;top=0;left=0;bottom=0;right=0;points=[[0,0.5],[1,0.5]];portConstraint=eastwest;" vertex="1" parent="171">
                    <mxGeometry y="100" width="180" height="30" as="geometry"/>
                </mxCell>
                <mxCell id="179" value="" style="shape=partialRectangle;connectable=0;fillColor=none;top=0;left=0;bottom=0;right=0;editable=1;overflow=hidden;" vertex="1" parent="178">
                    <mxGeometry width="30" height="30" as="geometry"/>
                </mxCell>
                <mxCell id="180" value="tag_id  refarence" style="shape=partialRectangle;connectable=0;fillColor=none;top=0;left=0;bottom=0;right=0;align=left;spacingLeft=6;overflow=hidden;" vertex="1" parent="178">
                    <mxGeometry x="30" width="150" height="30" as="geometry"/>
                </mxCell>
                <mxCell id="184" value="" style="edgeStyle=entityRelationEdgeStyle;fontSize=12;html=1;endArrow=ERzeroToMany;startArrow=ERmandOne;entryX=1;entryY=-0.067;entryDx=0;entryDy=0;entryPerimeter=0;" edge="1" parent="1" source="2" target="49">
                    <mxGeometry width="100" height="100" relative="1" as="geometry">
                        <mxPoint x="180" y="210" as="sourcePoint"/>
                        <mxPoint x="280" y="240" as="targetPoint"/>
                    </mxGeometry>
                </mxCell>
                <mxCell id="187" value="Rooms" style="shape=table;startSize=30;container=1;collapsible=1;childLayout=tableLayout;fixedRows=1;rowLines=0;fontStyle=1;align=center;resizeLast=1;" vertex="1" parent="1">
                    <mxGeometry y="210" width="180" height="100" as="geometry"/>
                </mxCell>
                <mxCell id="188" value="" style="shape=partialRectangle;collapsible=0;dropTarget=0;pointerEvents=0;fillColor=none;top=0;left=0;bottom=1;right=0;points=[[0,0.5],[1,0.5]];portConstraint=eastwest;" vertex="1" parent="187">
                    <mxGeometry y="30" width="180" height="30" as="geometry"/>
                </mxCell>
                <mxCell id="189" value="PK" style="shape=partialRectangle;connectable=0;fillColor=none;top=0;left=0;bottom=0;right=0;fontStyle=1;overflow=hidden;" vertex="1" parent="188">
                    <mxGeometry width="30" height="30" as="geometry"/>
                </mxCell>
                <mxCell id="190" value="UniqueID" style="shape=partialRectangle;connectable=0;fillColor=none;top=0;left=0;bottom=0;right=0;align=left;spacingLeft=6;fontStyle=5;overflow=hidden;" vertex="1" parent="188">
                    <mxGeometry x="30" width="150" height="30" as="geometry"/>
                </mxCell>
                <mxCell id="191" value="" style="shape=partialRectangle;collapsible=0;dropTarget=0;pointerEvents=0;fillColor=none;top=0;left=0;bottom=0;right=0;points=[[0,0.5],[1,0.5]];portConstraint=eastwest;" vertex="1" parent="187">
                    <mxGeometry y="60" width="180" height="30" as="geometry"/>
                </mxCell>
                <mxCell id="192" value="" style="shape=partialRectangle;connectable=0;fillColor=none;top=0;left=0;bottom=0;right=0;editable=1;overflow=hidden;" vertex="1" parent="191">
                    <mxGeometry width="30" height="30" as="geometry"/>
                </mxCell>
                <mxCell id="193" value="user  refarence" style="shape=partialRectangle;connectable=0;fillColor=none;top=0;left=0;bottom=0;right=0;align=left;spacingLeft=6;overflow=hidden;" vertex="1" parent="191">
                    <mxGeometry x="30" width="150" height="30" as="geometry"/>
                </mxCell>
                <mxCell id="200" value="" style="fontSize=12;html=1;endArrow=ERzeroToMany;startArrow=ERmandOne;exitX=0.5;exitY=0;exitDx=0;exitDy=0;" edge="1" parent="1" source="187">
                    <mxGeometry width="100" height="100" relative="1" as="geometry">
                        <mxPoint x="160" y="180" as="sourcePoint"/>
                        <mxPoint x="100" y="140" as="targetPoint"/>
                    </mxGeometry>
                </mxCell>
                <mxCell id="201" value="" style="fontSize=12;html=1;endArrow=ERzeroToMany;startArrow=ERmandOne;" edge="1" parent="1">
                    <mxGeometry width="100" height="100" relative="1" as="geometry">
                        <mxPoint x="130" y="310" as="sourcePoint"/>
                        <mxPoint x="110" y="350" as="targetPoint"/>
                    </mxGeometry>
                </mxCell>
                <mxCell id="202" value="" style="edgeStyle=orthogonalEdgeStyle;fontSize=12;html=1;endArrow=ERzeroToMany;startArrow=ERmandOne;curved=1;" edge="1" parent="1" source="58">
                    <mxGeometry width="100" height="100" relative="1" as="geometry">
                        <mxPoint x="340" y="420" as="sourcePoint"/>
                        <mxPoint x="182" y="500" as="targetPoint"/>
                        <Array as="points">
                            <mxPoint x="250" y="395"/>
                            <mxPoint x="250" y="500"/>
                        </Array>
                    </mxGeometry>
                </mxCell>
                <mxCell id="203" style="edgeStyle=orthogonalEdgeStyle;curved=1;html=1;exitX=0;exitY=0.5;exitDx=0;exitDy=0;" edge="1" parent="1" source="58">
                    <mxGeometry relative="1" as="geometry">
                        <mxPoint x="270" y="395" as="targetPoint"/>
                    </mxGeometry>
                </mxCell>
                <mxCell id="204" value="" style="fontSize=12;html=1;endArrow=ERzeroToMany;startArrow=ERmandOne;exitX=0.944;exitY=0;exitDx=0;exitDy=0;exitPerimeter=0;" edge="1" parent="1" source="2">
                    <mxGeometry width="100" height="100" relative="1" as="geometry">
                        <mxPoint x="460" y="220" as="sourcePoint"/>
                        <mxPoint x="470" y="130" as="targetPoint"/>
                        <Array as="points">
                            <mxPoint x="450" y="160"/>
                            <mxPoint x="470" y="150"/>
                        </Array>
                    </mxGeometry>
                </mxCell>
                <mxCell id="205" value="" style="edgeStyle=entityRelationEdgeStyle;fontSize=12;html=1;endArrow=ERzeroToMany;startArrow=ERmandOne;entryX=1;entryY=0.5;entryDx=0;entryDy=0;exitX=-0.006;exitY=1.167;exitDx=0;exitDy=0;exitPerimeter=0;" edge="1" parent="1" source="81" target="68">
                    <mxGeometry width="100" height="100" relative="1" as="geometry">
                        <mxPoint x="500" y="190" as="sourcePoint"/>
                        <mxPoint x="600" y="90" as="targetPoint"/>
                    </mxGeometry>
                </mxCell>
                <mxCell id="206" value="" style="edgeStyle=entityRelationEdgeStyle;fontSize=12;html=1;endArrow=ERzeroToMany;startArrow=ERmandOne;entryX=-0.011;entryY=0.094;entryDx=0;entryDy=0;entryPerimeter=0;" edge="1" parent="1" target="90">
                    <mxGeometry width="100" height="100" relative="1" as="geometry">
                        <mxPoint x="450" y="340" as="sourcePoint"/>
                        <mxPoint x="550" y="240" as="targetPoint"/>
                    </mxGeometry>
                </mxCell>
                <mxCell id="207" value="" style="fontSize=12;html=1;endArrow=ERzeroToMany;startArrow=ERmandOne;entryX=0.5;entryY=0;entryDx=0;entryDy=0;exitX=0.25;exitY=1;exitDx=0;exitDy=0;" edge="1" parent="1" source="77" target="90">
                    <mxGeometry width="100" height="100" relative="1" as="geometry">
                        <mxPoint x="550" y="250" as="sourcePoint"/>
                        <mxPoint x="650" y="150" as="targetPoint"/>
                    </mxGeometry>
                </mxCell>
                <mxCell id="209" value="" style="fontSize=12;html=1;endArrow=ERoneToMany;exitX=0.767;exitY=1.1;exitDx=0;exitDy=0;exitPerimeter=0;entryX=0.75;entryY=0;entryDx=0;entryDy=0;" edge="1" parent="1" source="58" target="132">
                    <mxGeometry width="100" height="100" relative="1" as="geometry">
                        <mxPoint x="460" y="470" as="sourcePoint"/>
                        <mxPoint x="420" y="450" as="targetPoint"/>
                    </mxGeometry>
                </mxCell>
                <mxCell id="210" value="" style="fontSize=12;html=1;endArrow=ERoneToMany;entryX=0.75;entryY=0;entryDx=0;entryDy=0;exitX=0.811;exitY=1.133;exitDx=0;exitDy=0;exitPerimeter=0;" edge="1" parent="1" source="142" target="158">
                    <mxGeometry width="100" height="100" relative="1" as="geometry">
                        <mxPoint x="450" y="650" as="sourcePoint"/>
                        <mxPoint x="550" y="550" as="targetPoint"/>
                    </mxGeometry>
                </mxCell>
                <mxCell id="212" value="" style="edgeStyle=entityRelationEdgeStyle;fontSize=12;html=1;endArrow=ERzeroToMany;endFill=1;startArrow=ERzeroToMany;" edge="1" parent="1">
                    <mxGeometry width="100" height="100" relative="1" as="geometry">
                        <mxPoint x="200" y="685" as="sourcePoint"/>
                        <mxPoint x="280" y="585" as="targetPoint"/>
                    </mxGeometry>
                </mxCell>
                <mxCell id="215" value="" style="fontSize=12;html=1;endArrow=ERzeroToMany;endFill=1;startArrow=ERzeroToMany;" edge="1" parent="1">
                    <mxGeometry width="100" height="100" relative="1" as="geometry">
                        <mxPoint x="180" y="780" as="sourcePoint"/>
                        <mxPoint x="180" y="710" as="targetPoint"/>
                    </mxGeometry>
                </mxCell>
                <mxCell id="216" value="" style="edgeStyle=entityRelationEdgeStyle;fontSize=12;html=1;endArrow=ERoneToMany;exitX=1;exitY=0.5;exitDx=0;exitDy=0;entryX=0;entryY=0.25;entryDx=0;entryDy=0;" edge="1" parent="1" source="58" target="103">
                    <mxGeometry width="100" height="100" relative="1" as="geometry">
                        <mxPoint x="460" y="440" as="sourcePoint"/>
                        <mxPoint x="560" y="340" as="targetPoint"/>
                    </mxGeometry>
                </mxCell>
                <mxCell id="217" value="" style="fontSize=12;html=1;endArrow=ERoneToMany;entryX=0.478;entryY=1.167;entryDx=0;entryDy=0;entryPerimeter=0;exitX=0.5;exitY=0;exitDx=0;exitDy=0;" edge="1" parent="1" source="119" target="116">
                    <mxGeometry width="100" height="100" relative="1" as="geometry">
                        <mxPoint x="600" y="670" as="sourcePoint"/>
                        <mxPoint x="700" y="570" as="targetPoint"/>
                    </mxGeometry>
                </mxCell>
            </root>
        </mxGraphModel>
    </diagram>
</mxfile>